Simulation
nRows=20
nColumns=15
endheader
time  TH_x TH_y TH_z SC_y  SC_z  SC_x  AC_y  AC_z  AC_x  GH_y  GH_z  GH_yy  EL_x  PS_y
0.0  0.000000  0.000000  0.000000  -40.97484877243665  6.293857566463187  5.290427962726946  44.261964981617695  7.46862561019823  0.07703652474839967  175.72336051556846  6.614924431596006  -150.57813216927192  22.6422988991421  120.000000
0.05745  0.000000  0.000000  0.000000  -39.02279085473318  5.792208685499207  3.195069457647657  43.5463695541268  7.582223692624807  0.3247896387492538  173.91623225760267  3.446767383222211  -150.00980852797701  22.05821243362209  120.000000
0.1149  0.000000  0.000000  0.000000  -37.225133369158286  5.137515142814124  1.087721421395726  42.91722621522835  7.515787136093808  0.6083339397310272  145.45319757283863  0.5113275570160201  -122.77542852335583  21.655636689160726  120.000000
0.17235  0.000000  0.000000  0.000000  -35.68397121487363  4.392401599024913  -0.9370644124509825  42.40801533980267  7.331838542933049  0.9471934323617247  7.218987640032875  2.487101813531984  14.227350703622704  21.51378612819377  120.000000
0.2298  0.000000  0.000000  0.000000  -34.44447443964471  3.6377744801491594  -2.8109117481294947  42.0354832717458  7.121757857933199  1.355912753337895  4.449621547972992  5.317805905610828  15.754486191019662  21.640376538355756  120.000000
0.28725  0.000000  0.000000  0.000000  -33.516140043606576  2.9587517996626094  -4.4969228201906395  41.78482642078574  6.98740378531889  1.8472500154814384  3.7001097764555575  8.169180318264377  15.234279247618916  21.971361850357802  120.000000
0.3447  0.000000  0.000000  0.000000  -32.90127258672168  2.4335316019667212  -5.971388096157935  41.62160259868681  7.0048124442733135  2.4201574805003396  3.079542756013559  11.098504595642384  14.53544076543875  22.406622790361148  120.000000
0.40215  0.000000  0.000000  0.000000  -32.61025323145678  2.118232108186499  -7.202179745107119  41.51213307532327  7.198272519562997  3.0440366977483766  2.378490532943376  14.159267381104693  13.846244158267586  22.835836449380817  120.000000
0.4596  0.000000  0.000000  0.000000  -32.65251513304696  2.04889981447562  -8.149851985879918  41.43012093052336  7.540818505453639  3.675659802440341  1.6384281170422659  17.384718116027443  13.116649623982902  23.16647346953569  120.000000
0.51705  0.000000  0.000000  0.000000  -33.02257852962228  2.241524383993476  -8.778445063449782  41.36377041311  7.9737568199293705  4.2807382662788305  0.9429313362490405  20.777244753285018  12.272253886848437  23.337358245992743  120.000000
0.5745  0.000000  0.000000  0.000000  -33.69599532335525  2.694121090289788  -9.085704171678808  41.31873545672636  8.439047484536886  4.859895225980541  0.37716709766767786  24.307277861045215  11.254136468714325  23.327425499183278  120.000000
0.63195  0.000000  0.000000  0.000000  -34.64243381219485  3.382100101002481  -9.116398623149163  41.316102208231094  8.900741254406888  5.455409174125807  0.026165457458462864  27.928354640047438  10.010692955240621  23.148093689031608  120.000000
0.6894  0.000000  0.000000  0.000000  -35.83314545545318  4.2611781738997365  -8.927475717961082  41.39220799639752  9.333905918646758  6.114632633929708  -0.031304884604722125  31.5902147780082  8.49066014247434  22.830385999775856  120.000000
0.74685  0.000000  0.000000  0.000000  -37.2388161262351  5.275964744116512  -8.559467197090745  41.58744766712495  9.721034935762919  6.863194642634894  0.24788433679365174  35.24077396174777  6.660717221326942  22.412061799886484  120.000000
0.8043  0.000000  0.000000  0.000000  -38.82143463295783  6.369124965558916  -8.036389686907576  41.92944439152377  10.062450859435186  7.701748267434128  0.8526021516199744  38.822389869710854  4.519036013263009  21.930443291593  120.000000
0.86175  0.000000  0.000000  0.000000  -40.52872819936218  7.482736639583818  -7.368493211405465  42.41922856284348  10.380914168577364  8.604575144191653  1.7133950820285246  42.2722359385909  2.1036021996451133  21.41851875009418  120.000000
0.9192  0.000000  0.000000  0.000000  -42.28960489969047  8.566465835803827  -6.55672721896077  43.02803080689923  10.711986246993398  9.53008740548627  2.7272293808994625  45.52576635590939  -0.5152493377504433  20.903788172269266  120.000000
0.97665  0.000000  0.000000  0.000000  -44.01667591359126  9.586995770906574  -5.592980609703226  43.70382860167789  11.086535451333255  10.433375315011002  3.7898000156989395  48.527774574241654  -3.243078064056017  20.40681053364005  120.000000
1.0341  0.000000  0.000000  0.000000  -45.62404902446984  10.534303147568709  -4.4674702017665044  44.38199293416173  11.516496297609159  11.270674130048365  4.813566851326454  51.2427992687139  -5.960955360278774  19.939613904355156  120.000000
1.09155  0.000000  0.000000  0.000000  -47.05076713640928  11.410386256865811  -3.1781239116428717  44.9970553510317  11.988893988408524  12.008099848852478  5.734364676159216  53.65871269702186  -8.531749316728574  19.504497500739543  120.000000
